<svg xmlns="http://www.w3.org/2000/svg" width="30" height="34" fill="none" viewBox="0 0 30 34">
  <path fill="#F8F9FA" d="M1.493 25.1l1.237.715L16.516 1.938l-1.237-.714L1.493 25.1z"/>
  <path fill="#F8F9FA" d="M28.78 23.193H1.21v1.429H28.78v-1.429z"/>
  <path fill="#F8F9FA" d="M1.754 23.996l13.79 7.962.715-1.237-13.79-7.963-.715 1.238zM13.735 3.244l13.79 7.962.715-1.237-13.791-7.963-.714 1.238z"/>
  <path fill="#F8F9FA" d="M1.758 9.963l.715 1.238 13.79-7.963-.714-1.237L1.76 9.963z"/>
  <path fill="#F8F9FA" d="M13.487 1.938l13.786 23.877 1.237-.714L14.724 1.224l-1.237.714zM3.732 9.016h-1.43V24.94h1.43V9.015z"/>
  <path fill="#F8F9FA" d="M27.697 9.016h-1.43V24.94h1.43V9.015z"/>
  <path fill="#F8F9FA" d="M14.679 30.272l.624 1.081 11.994-6.925-.624-1.08-11.994 6.924z"/>
  <path fill="#F8F9FA" d="M29.59 25.405a3.009 3.009 0 01-4.106 1.102 3.009 3.009 0 01-1.101-4.106 3.009 3.009 0 014.106-1.102 2.996 2.996 0 011.101 4.106zM5.608 11.555a3.009 3.009 0 01-4.106 1.102A3.009 3.009 0 01.4 8.551a3.009 3.009 0 014.106-1.102 3.01 3.01 0 011.102 4.106zM.408 25.405A3.01 3.01 0 011.51 21.3a3.01 3.01 0 014.106 1.102 3.01 3.01 0 01-1.102 4.106 3.007 3.007 0 01-4.106-1.102zM24.39 11.555a3.01 3.01 0 011.102-4.106 3.01 3.01 0 014.106 1.102 3.01 3.01 0 01-1.102 4.106 3.009 3.009 0 01-4.106-1.102zM15 33.833a3.001 3.001 0 01-3.005-3.005A3.001 3.001 0 0115 27.824a3.001 3.001 0 013.004 3.004A3.007 3.007 0 0115 33.833zM15 6.132a3.001 3.001 0 01-3.005-3.004A3.001 3.001 0 0115 .124a3.001 3.001 0 013.004 3.004A3.001 3.001 0 0115 6.132z"/>
</svg>
