<svg xmlns="http://www.w3.org/2000/svg" width="27" height="38" fill="none" viewBox="0 0 27 38">
  <path fill="#303947" d="M2.85 34.335L.443 7.337h26.45l-2.41 26.994-10.831 3.002L2.85 34.335z"/>
  <path fill="#606775" d="M13.667 35.038l8.752-2.426 2.06-23.068H13.666v25.494z"/>
  <path fill="#F1F2F5" d="M13.668 19.558H9.287l-.303-3.391h4.684v-3.311H5.365l.08.888.813 9.125h7.41v-3.311zM13.67 28.157l-.015.004-3.688-.996-.236-2.64H6.407l.464 5.198 6.783 1.883.015-.004v-3.445z"/>
  <path fill="#F8F9FA" d="M2.903 0h1.683v1.663h1.54V0h1.682v5.034H6.125V3.35H4.586v1.685H2.903V0zM10.02 1.67H8.538V0h4.646v1.67h-1.482v3.364H10.02V1.67zM13.922 0h1.755l1.079 1.769L17.834 0h1.755v5.034h-1.675V2.54l-1.158 1.79h-.03l-1.158-1.79v2.495h-1.646V0zM20.427 0h1.683v3.37h2.366v1.664h-4.05V0z"/>
  <g>
    <path fill="#fff" d="M13.656 19.557v3.312h4.078l-.385 4.294-3.693.997v3.445l6.788-1.882.05-.56.778-8.716.081-.89h-7.697zM13.656 12.855V16.168h7.998l.067-.745.15-1.678.08-.889h-8.295z"/>
  </g>
</svg>
