<svg xmlns="http://www.w3.org/2000/svg" width="39" height="39" fill="none" viewBox="0 0 39 39">
  <rect width="38.605" height="38.605" x=".001" fill="#303947" rx="7.721"/>
  <path fill="#F8F9FA" d="M34.801 28.818c-.273-1.706-1.386-3.137-4.671-4.472-1.13-.52-2.388-.893-2.786-1.736a1.881 1.881 0 01-.081-1.129c.245-.984 1.428-1.3 2.365-1.016a2.543 2.543 0 011.35 1.095.359.359 0 00.492.105c1.153-.737 1.335-.86 2.102-1.35a.36.36 0 00.106-.504 5.62 5.62 0 00-.701-.9c-.966-1.08-2.282-1.637-4.384-1.598h-.042l-1.055.138h-.05c-1.047.27-2.04.821-2.625 1.559-1.77 2.006-1.267 5.52.887 6.966 2.123 1.593 5.238 1.955 5.636 3.442.386 1.815-1.325 2.408-3.034 2.213h-.044c-1.149-.246-1.832-.806-2.523-1.797a.36.36 0 00-.475-.106l-2.252 1.3a.363.363 0 00-.138.493c.311.51.682.98 1.104 1.401l.02.02c2.705 2.737 9.474 2.599 10.689-1.554a5.144 5.144 0 00.11-2.57zM14.14 20.792h-3.811a.327.327 0 01-.327-.327v-2.76a.327.327 0 01.327-.323h11.847a.327.327 0 01.32.322v2.756a.326.326 0 01-.33.328h-3.819a.33.33 0 00-.329.329v12.914a.328.328 0 01-.327.33h-2.894a.33.33 0 01-.33-.33v-12.91a.326.326 0 00-.327-.328z"/>
</svg>
