<svg xmlns="http://www.w3.org/2000/svg" width="37" height="37" fill="none" viewBox="0 0 37 37">
  <path fill="#CBCFD6" stroke="#121723" stroke-miterlimit="10" stroke-width=".435" d="M34.333 3.303h-5.712l.053.03-10.138 17.672a.474.474 0 01-.255.215v.018a.181.181 0 01-.323 0l-.01-.018a.484.484 0 01-.254-.215L7.551 3.335l.053-.03-5.54.054a.808.808 0 00-.693 1.205L7.85 15.902c.796 1.373 7.288 12.519 9.523 16.353a.875.875 0 001.51 0c4.625-7.896 7.712-13.272 16.107-27.804l.01-.015a.756.756 0 00-.666-1.133v0z"/>
  <path fill="#606775" stroke="#121723" stroke-miterlimit="10" stroke-width=".435" d="M28.625 3.305h-6.352a.18.18 0 00-.18.116c-1.101 1.91-2.245 3.888-3.776 6.541a.284.284 0 01-.457 0c-1.529-2.662-2.672-4.64-3.766-6.55a.18.18 0 00-.18-.116H7.408L17.9 21.692a.233.233 0 00.361 0L28.767 3.305h-.142z"/>
</svg>
