<svg xmlns="http://www.w3.org/2000/svg" width="22" height="23" viewBox="0 0 22 23">
  <path fill-rule="evenodd" d="M13.2327518,10.3921111 C13.2327518,13.2617639 8.98365108,13.2617639 8.98365108,10.3921111 C8.98365108,7.52245833 13.2327518,7.52245833 13.2327518,10.3921111 Z M12.1704766,21.156 L10.0459263,21.156 C8.98365108,21.156 8.45251349,16.9639497 8.45251349,15.7740556 C8.45251349,14.5841615 9.64135876,13.6212778 11.1082014,13.6212778 C12.5750441,13.6212778 13.7638894,14.5841615 13.7638894,15.7740556 C13.7638894,16.9639497 13.2327518,21.156 12.1704766,21.156 Z M11.1082014,1.781 L11.1082227,1.781 C15.7930156,1.781 19.6064241,5.64507465 19.6064241,10.3921111 C19.6064241,13.8797187 17.5461945,16.881875 14.597956,18.2357569 C14.6726499,17.7711337 14.722444,17.3296635 14.7556401,16.9512483 C17.0129749,15.6559219 18.5441383,13.2025625 18.5441383,10.3917344 C18.5441383,6.2375191 15.2079569,2.85701215 11.1082121,2.85701215 C7.00846723,2.85701215 3.6722858,6.2375191 3.6722858,10.3917344 C3.6722858,13.2027778 5.20344925,15.656191 7.460784,16.9490955 C7.4939801,17.3275 7.54377425,17.7689917 7.61846813,18.2336042 C4.6702296,16.8821979 2.61,13.8798802 2.61,10.3921111 C2.61,5.64507465 6.42340855,1.781 11.1082014,1.781 Z M11.1082014,5.01011285 L11.1082014,5.01011285 C14.0377439,5.01011285 16.4195773,7.42359201 16.4195773,10.3920573 C16.4195773,12.0402778 15.6830488,13.5161146 14.5273997,14.5041858 C14.3697262,14.1846059 14.1518801,13.8944976 13.8904595,13.6380156 C14.7867542,12.8496684 15.3573022,11.6870608 15.3573022,10.3920573 C15.3573022,8.01851215 13.4506244,6.08650174 11.1082014,6.08650174 C8.76577844,6.08650174 6.85910072,8.01851215 6.85910072,10.3920573 C6.85910072,11.6871146 7.42964872,12.8496684 8.32801484,13.6401684 C8.06660485,13.8966719 7.84875877,14.1867856 7.69107464,14.5063385 C6.53335404,13.5182674 5.79682554,12.0403316 5.79682554,10.3921111 C5.79682554,7.42364583 8.17865895,5.01011285 11.1082014,5.01011285 Z"/>
</svg>
