<svg xmlns="http://www.w3.org/2000/svg" width="22" height="22" viewBox="0 0 22 22">
  <path d="M10.992,1 C5.474,1 1,5.474 1,10.992 C1,16.51 5.474,20.984 10.992,20.984 C16.51,20.984 20.984,16.51 20.984,10.992 C20.984,5.474 16.51,1 10.992,1 Z M15.34,16.683 C15.213,17.012 14.985,17.195 14.75,17.195 C14.6218364,17.1921857 14.499269,17.1419473 14.406,17.054 C12.61,15.466 10.536,15.211 9.112,15.276 C7.534,15.349 6.377,15.82 6.365,15.825 C6.002,15.975 5.625,15.651 5.526,15.101 C5.426,14.551 5.64,13.982 6.003,13.831 C6.055,13.809 7.3,13.297 9.032,13.211 C10.0153223,13.1562496 11.0009334,13.2643729 11.949,13.531 C13.1146302,13.866817 14.1898211,14.4604618 15.095,15.268 C15.421,15.557 15.531,16.19 15.34,16.683 L15.34,16.683 Z M16.61,13.62 C16.46,13.949 16.19,14.132 15.911,14.132 C15.7636009,14.1305623 15.6206986,14.0810556 15.504,13.991 C13.377,12.403 10.92,12.148 9.233,12.213 C7.363,12.286 5.993,12.757 5.98,12.762 C5.549,12.912 5.104,12.588 4.985,12.038 C4.867,11.488 5.12,10.919 5.551,10.768 C5.612,10.746 7.087,10.234 9.138,10.148 C10.346,10.097 11.508,10.205 12.594,10.468 C13.9410167,10.7881185 15.208761,11.37912 16.32,12.205 C16.706,12.493 16.836,13.127 16.61,13.62 L16.61,13.62 Z M17.392,10.624 C17.2154321,10.6236484 17.042396,10.5745062 16.892,10.482 C11.835,7.404 5.276,9.234 5.21,9.252 C4.682,9.405 4.135,9.082 3.99,8.531 C3.844,7.98 4.155,7.411 4.683,7.259 C4.759,7.237 6.568,6.725 9.083,6.639 C10.5039142,6.58350095 11.9265109,6.69086674 13.323,6.959 C15.009,7.292 16.546,7.876 17.893,8.697 C18.367,8.985 18.526,9.618 18.25,10.111 C18.0784686,10.4252071 17.7499713,10.6216164 17.392,10.624 L17.392,10.624 Z"/>
</svg>
