<svg xmlns="http://www.w3.org/2000/svg" width="32" height="32" fill="none" viewBox="0 0 32 32">
  <path fill="#60A5FA" d="M16 32a16 16 0 1116-16 16.019 16.019 0 01-16 16zm0-29a13 13 0 1013 13A13.015 13.015 0 0016 3z"/>
  <path fill="#60A5FA" d="M11.571 22C8.135 22 6 19.7 6 16s2.135-6 5.571-6a5.705 5.705 0 012.607.59l1.338.678-1.355 2.675-1.339-.677A2.71 2.71 0 0011.571 13C10.8 13 9 13 9 16s1.8 3 2.571 3c.432.012.861-.079 1.251-.266l1.339-.677 1.355 2.675-1.338.678c-.81.4-1.704.603-2.607.59zM21.571 22C18.135 22 16 19.7 16 16s2.135-6 5.571-6a5.705 5.705 0 012.607.59l1.338.678-1.355 2.675-1.339-.677A2.71 2.71 0 0021.571 13C20.8 13 19 13 19 16s1.8 3 2.571 3c.432.012.861-.079 1.251-.266l1.339-.677 1.355 2.675-1.338.678c-.81.4-1.704.603-2.607.59z"/>
</svg>
