<svg xmlns="http://www.w3.org/2000/svg" width="75" height="35" fill="none" viewBox="0 0 75 35">
  <path fill="#CBCFD6" d="M58.643 30.395V17.984L47.97 11.843v7.075l4.889 2.834v5.32l5.784 3.323zm2.773.073l5.89-3.394v-5.446l4.922-2.852V11.79l-10.812 6.242v12.436zm9.39-21.058l-5.683-3.294-4.99 2.896-5.028-2.898L49.37 9.45l10.7 6.156L70.806 9.41zM45.197 25.87V8.671L60.097 0 75 8.636v17.206l-14.903 8.585-14.9-8.558z"/>
  <path fill="#CBCFD6" fill-rule="evenodd" d="M16.116.886C7.252.886 0 8.138 0 17.002a16.098 16.098 0 0011.012 15.31c.806.134 1.075-.403 1.075-.806V28.82c-4.432.94-5.372-2.149-5.372-2.149-.672-1.88-1.746-2.417-1.746-2.417-1.612-.94 0-.94 0-.94 1.612.134 2.417 1.611 2.417 1.611 1.478 2.418 3.76 1.746 4.7 1.343.135-1.074.538-1.746 1.075-2.149-3.626-.402-7.386-1.745-7.386-7.923 0-1.746.671-3.223 1.611-4.298 0-.537-.671-2.148.269-4.297 0 0 1.343-.403 4.432 1.611 1.343-.402 2.686-.537 4.029-.537s2.686.135 4.028.537c3.09-2.148 4.432-1.611 4.432-1.611.94 2.283.269 3.894.134 4.297 1.075 1.075 1.612 2.552 1.612 4.298 0 6.177-3.76 7.52-7.386 7.923.537.538 1.074 1.478 1.074 2.955v4.432c0 .402.269.94 1.074.805a16.098 16.098 0 0011.013-15.31C32.23 8.139 24.979.887 16.115.887z" clip-rule="evenodd"/>
</svg>
