<svg xmlns="http://www.w3.org/2000/svg" width="30" height="30" fill="none" viewBox="0 0 30 30">
  <path fill="#A78BFA" d="M15 2.813a2.812 2.812 0 115.625 0v.937A1.875 1.875 0 0022.5 5.625h5.625A1.875 1.875 0 0130 7.5v5.625A1.875 1.875 0 0128.125 15h-.938a2.812 2.812 0 100 5.625h.938A1.875 1.875 0 0130 22.5v5.625A1.875 1.875 0 0128.125 30H22.5a1.875 1.875 0 01-1.875-1.875v-.938a2.812 2.812 0 10-5.625 0v.938A1.875 1.875 0 0113.125 30H7.5a1.875 1.875 0 01-1.875-1.875V22.5a1.875 1.875 0 00-1.875-1.875h-.938a2.812 2.812 0 110-5.625h.938a1.875 1.875 0 001.875-1.875V7.5A1.875 1.875 0 017.5 5.625h5.625A1.875 1.875 0 0015 3.75v-.938z"/>
</svg>
