<svg xmlns="http://www.w3.org/2000/svg" width="32" height="27" fill="none" viewBox="0 0 32 27">
  <path fill="#EF4444" d="M2.91 13.614L0 10.706c5.425-5.425 12.902-7.49 19.927-6.269L16.174 8.19c-4.8-.029-9.614 1.775-13.265 5.425zm2.908 2.91a14.394 14.394 0 015.411-3.39l-4.393 4.393-1.018-1.003zm14.546 5.818L16 26.706l-4.364-4.364a6.164 6.164 0 018.728 0zM28.494 0l2.052 2.05-4.437 4.437A22.839 22.839 0 0132 10.706l-2.91 2.909a18.399 18.399 0 00-6.064-4.044l-3.259 3.258a14.288 14.288 0 016.415 3.695l-2.91 2.909a10.18 10.18 0 00-7.112-2.997L5.862 26.735 3.81 24.684 28.494 0z"/>
</svg>
