<svg xmlns="http://www.w3.org/2000/svg" width="40" height="40" fill="none" viewBox="0 0 40 40">
  <circle cx="19.713" cy="19.713" r="19.713" fill="#F1F2F5"/>
  <path fill="#1D2530" d="M21.986 11.87a2.2 2.2 0 00-2.205-2.205c-1.221 0-2.205 1.022-2.205 2.205a2.2 2.2 0 002.205 2.204 2.2 2.2 0 002.205-2.204z"/>
  <path fill="#1D2530" d="M16.552 29.58c.434 0 .827-.235 1.024-.669l2.205-4.723 2.283 4.763c.159.432.59.67 1.024.67.157 0 .315-.04.472-.12.55-.274.826-.943.55-1.534 0 0-2.164-4.958-2.558-6.77-.157-.628-.235-2.32-.275-3.108-.04-.275.157-.512.394-.59l4.841-1.457c.59-.158.944-.827.788-1.417-.159-.59-.828-.944-1.418-.787 0 0-4.527 1.456-6.1 1.456-1.575 0-6.024-1.418-6.024-1.418-.59-.157-1.259.118-1.455.709-.197.59.156 1.259.787 1.456l4.88 1.417c.236.079.393.316.393.59l-.002.048c-.04.806-.12 2.444-.273 3.062-.394 1.81-2.558 6.77-2.558 6.77-.277.59-.04 1.259.55 1.534.157.078.315.118.472.118z"/>
</svg>
