<svg xmlns="http://www.w3.org/2000/svg" width="42" height="42" fill="none" viewBox="0 0 42 42">
  <path stroke="#303947" stroke-miterlimit="10" stroke-width=".55" d="M20.203 2.107L3.654 7.93a.754.754 0 00-.496.8l2.626 21.766a.754.754 0 00.376.57l13.945 7.662a.756.756 0 00.727 0l14.016-7.768a.747.747 0 00.382-.567l2.625-21.768a.758.758 0 00-.503-.803L20.698 2.105a.743.743 0 00-.495.002v0z"/>
  <path fill="#606775" d="M35.49 9.097L20.413 3.963v33.06l12.822-7.096a.918.918 0 00.464-.686l2.404-19.146a.912.912 0 00-.611-.998z"/>
  <path fill="#E1E3E8" d="M5.12 10.156l2.213 19.159a.916.916 0 00.47.694l12.609 6.996V3.945L5.719 9.189a.914.914 0 00-.6.967z"/>
  <path fill="#303947" d="M5.12 10.156l2.213 19.159a.916.916 0 00.47.694l12.609 6.996V3.945L5.719 9.189a.914.914 0 00-.6.967z"/>
  <path fill="#F1F2F5" d="M24.213 21.791l-3.768 1.762h-3.971l-1.869 4.67-3.472.063 9.312-20.713 3.768 14.218zm-.365-.89l-3.378-6.687-2.772 6.57h2.747l3.403.118z"/>
  <path fill="#fff" d="M20.445 7.573l.025 6.64 3.144 6.572H20.45v2.756h4.374l2.054 4.723 3.322.061-9.756-20.752z"/>
  <path fill="#F8F9FA" d="M20.445 7.573l.025 6.64 3.144 6.572H20.45v2.756h4.374l2.054 4.723 3.322.061-9.756-20.752z"/>
</svg>
