<svg xmlns="http://www.w3.org/2000/svg" width="46" height="28" fill="none" viewBox="0 0 46 28">
  <path fill="#121723" d="M39.069.017c.243.055.49.091.74.109.62.088 1.23.241 1.818.458.146.06.29.128.428.205a.946.946 0 01.545.96c-.015.247.017.493-.017.725-.042.28-.19.384-.463.323-.343-.08-.644-.264-.986-.372a7.057 7.057 0 00-3.62-.247 2.818 2.818 0 00-.537.183c-1.136.492-1.178 2.082-.247 2.68a6.9 6.9 0 001.52.678c.92.306 1.861.542 2.756.914 1.027.43 1.828 1.097 2.156 2.203a3.814 3.814 0 01-1.737 4.436 5.914 5.914 0 01-2.509.813 9.717 9.717 0 01-4.465-.596 3.384 3.384 0 01-.626-.316.833.833 0 01-.404-.739v-.8c0-.388.202-.53.577-.405.374.126.764.306 1.155.431a8.068 8.068 0 003.827.328c.46-.066.894-.25 1.262-.535.774-.613.86-2.008-.16-2.612a7.98 7.98 0 00-1.654-.658c-.813-.26-1.646-.463-2.432-.8-1.16-.493-1.993-1.316-2.304-2.56-.367-1.48.079-2.711 1.232-3.67a5.175 5.175 0 012.9-1.114c.052 0 .116.025.156-.039l1.089.017zM19.437 11.01c.145-.57.269-1.131.392-1.696.644-2.699 1.284-5.403 1.922-8.114.153-.648.32-.776.986-.776h1.2c.47.012.66.162.773.623.158.646.306 1.294.459 1.942l1.9 8.04c0 .035 0 .08.064.099l.433-1.678 2.127-8.218c.182-.702.335-.813 1.064-.816h1.198c.325 0 .434.124.409.449a3.95 3.95 0 01-.234.88c-1.163 3.734-2.328 7.466-3.494 11.197-.222.71-.36.81-1.097.81h-1.123c-.533 0-.727-.16-.853-.68-.329-1.335-.65-2.67-.963-4.006a3501.82 3501.82 0 00-1.336-5.56.17.17 0 00-.062-.125c-.246 1.03-.493 2.056-.739 3.078-.52 2.168-1.04 4.335-1.557 6.5v.057c-.16.591-.306.712-.917.722h-1.407a.643.643 0 01-.633-.459c-.207-.537-.353-1.094-.52-1.646-1.053-3.45-2.104-6.907-3.152-10.371a2.287 2.287 0 01-.1-.432.325.325 0 01.354-.406h1.636a.618.618 0 01.621.438c.169.505.31 1.018.421 1.538.727 2.85 1.451 5.703 2.174 8.558a.419.419 0 00.02.05l.034.002zm-9.009 1.01c-.399.48-.87.896-1.397 1.232a5.434 5.434 0 01-4.682.572c-1.395-.463-2.173-1.508-2.39-2.957a4.219 4.219 0 01.397-2.71c.603-1.124 1.584-1.768 2.792-2.093a8.24 8.24 0 013.058-.138c.648.08 1.29.194 1.927.343.066.015.142.059.14-.07 0-.773.05-1.55-.138-2.31-.246-1.026-.894-1.553-2.023-1.713-1.358-.195-2.649.061-3.916.517a8.87 8.87 0 01-.938.355c-.306.072-.464-.04-.474-.357-.01-.318 0-.646 0-.971a.69.69 0 01.414-.643 8.131 8.131 0 011.88-.705 9.29 9.29 0 014.46-.096c1.753.404 2.743 1.54 3.069 3.265.087.506.127 1.02.12 1.533v4.511a4.928 4.928 0 00.604 2.516c.037.067.071.133.106.202a.493.493 0 01-.13.663 8.87 8.87 0 01-1.154.772.582.582 0 01-.74-.178 4.823 4.823 0 01-.79-1.148c-.062-.13-.123-.247-.195-.392zM7.471 7.644a5.59 5.59 0 00-1.094.103c-.904.19-1.574.65-1.804 1.602-.064.311-.08.63-.049.946.072.986.638 1.634 1.575 1.777a4.059 4.059 0 002.71-.515A2.657 2.657 0 0010.2 9.7a9.408 9.408 0 00.096-1.535c0-.138-.044-.182-.17-.21-.867-.195-1.752-.3-2.641-.312H7.47zM0 18.025c.288-.325.419-.347.813-.12a43.612 43.612 0 008.238 3.649 46.008 46.008 0 006.835 1.653c2.756.449 5.548.638 8.339.567 1.42-.04 2.839-.152 4.248-.335a45.112 45.112 0 008.598-1.971 47.503 47.503 0 003.057-1.156.845.845 0 01.77 0 .592.592 0 01.214.892c-.087.118-.194.22-.316.3a27.599 27.599 0 01-7.717 3.827c-1.959.638-3.97 1.1-6.01 1.38a32.49 32.49 0 01-3.391.303c-.04 0-.091-.02-.116.035h-2.048c-.017-.05-.061-.035-.096-.035l-.818-.04a31.409 31.409 0 01-3.625-.396 32.533 32.533 0 01-5.083-1.256 32.733 32.733 0 01-11.185-6.38c-.28-.2-.52-.451-.707-.74v-.177z"/>
  <path fill="#121723" d="M42.063 16.037a8.41 8.41 0 012.311.278c.685.195.819.357.833 1.072a9.01 9.01 0 01-.655 3.31 8.558 8.558 0 01-2.003 3.203 2.43 2.43 0 01-.422.357c-.145.089-.305.158-.458.03-.153-.128-.084-.276-.027-.422.384-.963.766-1.93 1.067-2.925a9.18 9.18 0 00.374-1.683c.02-.17.023-.341.013-.512a.776.776 0 00-.577-.762 4.39 4.39 0 00-1.274-.197 26.073 26.073 0 00-3.869.247 2.14 2.14 0 01-.396.02.247.247 0 01-.207-.358.768.768 0 01.327-.357 7.75 7.75 0 013.011-1.154c.645-.109 1.298-.158 1.952-.147z"/>
</svg>
