<svg xmlns="http://www.w3.org/2000/svg" width="27" height="38" fill="none" viewBox="0 0 27 38">
  <path fill="#303947" d="M26.45 7.337l-2.41 26.994-10.831 3.002-10.802-2.998L0 7.337h26.45z"/>
  <path fill="#606775" d="M21.979 32.612l2.059-23.068H13.227v25.494l8.752-2.426z"/>
  <path fill="#F1F2F5" d="M5.518 19.558l.296 3.31h7.41v-3.31H5.518zM13.225 12.856H4.922l.3 3.31h8.003v-3.31zM13.225 31.602v-3.445l-.015.004-3.687-.996-.236-2.64H5.963l.464 5.198 6.783 1.883.015-.004z"/>
  <path fill="#303947" d="M6.225 0h4.01v1.677H7.902v1.677h2.333v1.677h-4.01V.001zM11.04 0h4.01v1.458h-2.334v.292h2.334v3.354h-4.01V3.573h2.332v-.292H11.04V.001zM15.85 0h4.01v1.458h-2.333v.292h2.333v3.354h-4.01V3.573h2.333v-.292H15.85V.001z"/>
  <path fill="#fff" d="M17.29 22.869l-.384 4.294-3.693.997v3.445L20 29.724l.05-.56.778-8.717.08-.89.599-6.701h-8.295v3.31h4.666l-.302 3.392h-4.364v3.31h4.077z"/>
</svg>
