<svg xmlns="http://www.w3.org/2000/svg" width="58" height="19" fill="none" viewBox="0 0 58 19">
  <path fill="#1D2530" d="M21.053 5.75h2.367v8.454h-2.367v-1.099c-.846 1.268-1.945 1.353-2.621 1.353-2.621 0-4.312-2.03-4.312-4.481 0-2.537 1.69-4.481 4.143-4.481.676 0 1.944.084 2.705 1.353v-1.1h.085zm-4.397 4.227c0 1.353.93 2.367 2.368 2.367 1.353 0 2.367-1.014 2.367-2.367s-.93-2.367-2.367-2.367c-1.353 0-2.368 1.014-2.368 2.367zm11.415-2.198v6.425h-2.368V7.78h-.93v-2.03h.93V2.875h2.368v2.874h1.606v2.03h-1.606zm7.186 0c-.591-.508-1.099-.592-1.352-.592-.592 0-.93.253-.93.676 0 .254.084.507.76.761l.592.17c.677.253 1.691.507 2.114 1.183.254.338.423.845.423 1.437 0 .761-.254 1.522-.93 2.114-.677.592-1.522.93-2.537.93-1.775 0-2.705-.845-3.297-1.437l1.268-1.438c.507.508 1.184 1.015 1.86 1.015.677 0 1.184-.338 1.184-.93 0-.507-.423-.761-.761-.846l-.507-.169c-.592-.253-1.269-.507-1.776-1.014-.423-.423-.676-.93-.676-1.607 0-.845.422-1.522.845-1.944.677-.508 1.522-.592 2.199-.592.591 0 1.606.084 2.705.93l-1.184 1.353zm5.158-.93c.846-1.184 2.03-1.353 2.706-1.353 2.451 0 4.142 1.944 4.142 4.48 0 2.537-1.69 4.482-4.227 4.482-.507 0-1.776-.085-2.706-1.353v1.1h-2.282V0h2.367v6.849zm-.254 3.128c0 1.353.93 2.367 2.368 2.367 1.352 0 2.367-1.014 2.367-2.367s-.93-2.367-2.367-2.367c-1.438 0-2.368 1.014-2.368 2.367zm10.992 2.96l-4.059-7.188h2.79l2.622 4.82 2.367-4.82h2.706l-6.764 12.937h-2.706l3.044-5.75zm-37.625-5.75H7.61v2.367h3.128c-.507 1.607-1.691 2.706-3.89 2.706-2.451 0-4.227-2.03-4.227-4.481 0-2.452 1.691-4.566 4.143-4.566 1.353 0 2.706.676 3.551 1.775L12.26 3.72C10.992 1.945 8.962.93 6.764.93 3.044.93 0 3.974 0 7.78c0 3.804 2.875 6.848 6.764 6.848 3.89 0 6.764-3.044 6.764-6.848.085-.254 0-.423 0-.592z"/>
</svg>
