<svg xmlns="http://www.w3.org/2000/svg" width="30" height="34" fill="none" viewBox="0 0 30 34">
  <path fill="#1D2530" d="M1.495 25.1l1.237.715L16.518 1.938l-1.237-.714L1.495 25.1z"/>
  <path fill="#1D2530" d="M28.782 23.193H1.211v1.429h27.571v-1.429z"/>
  <path fill="#1D2530" d="M1.756 23.996l13.79 7.962.715-1.237-13.79-7.963-.715 1.238zM13.735 3.244l13.79 7.962.715-1.237-13.791-7.963-.714 1.238z"/>
  <path fill="#1D2530" d="M1.76 9.963l.715 1.238 13.79-7.963-.714-1.237-13.79 7.962z"/>
  <path fill="#1D2530" d="M13.486 1.938L27.27 25.815l1.238-.714L14.723 1.224l-1.237.714zM3.732 9.016h-1.43V24.94h1.43V9.015z"/>
  <path fill="#1D2530" d="M27.697 9.016h-1.43V24.94h1.43V9.015z"/>
  <path fill="#1D2530" d="M14.68 30.272l.625 1.081 11.994-6.925-.624-1.08-11.994 6.924z"/>
  <path fill="#1D2530" d="M29.591 25.405a3.009 3.009 0 01-4.106 1.102 3.009 3.009 0 01-1.101-4.106A3.009 3.009 0 0128.49 21.3a2.996 2.996 0 011.101 4.106zM5.609 11.555a3.009 3.009 0 01-4.106 1.102A3.009 3.009 0 01.401 8.551a3.009 3.009 0 014.106-1.102 3.01 3.01 0 011.102 4.106zM.409 25.405A3.01 3.01 0 011.511 21.3a3.01 3.01 0 014.106 1.102 3.01 3.01 0 01-1.102 4.106 3.007 3.007 0 01-4.106-1.102zM24.391 11.555a3.01 3.01 0 011.102-4.106A3.01 3.01 0 0129.6 8.551a3.01 3.01 0 01-1.102 4.106 3.009 3.009 0 01-4.106-1.102zM15 33.833a3.001 3.001 0 01-3.004-3.005A3.001 3.001 0 0115 27.824a3.001 3.001 0 013.005 3.004A3.007 3.007 0 0115 33.833zM15 6.132a3.001 3.001 0 01-3.004-3.004A3.001 3.001 0 0115 .124a3.001 3.001 0 013.005 3.004A3.001 3.001 0 0115 6.132z"/>
</svg>
