<svg xmlns="http://www.w3.org/2000/svg" width="39" height="39" fill="none" viewBox="0 0 39 39">
  <rect width="38.605" height="38.605" fill="#F1F2F5" rx="7.721"/>
  <path fill="#1D2530" d="M34.374 27.73c-.273-1.689-1.375-3.11-4.64-4.432-1.117-.516-2.364-.885-2.758-1.72a1.846 1.846 0 01-.082-1.12c.242-.982 1.414-1.288 2.346-1.006.559.193 1.032.576 1.336 1.083a.352.352 0 00.483.104c1.143-.738 1.324-.852 2.085-1.334a.359.359 0 00.103-.5c-.2-.32-.432-.62-.695-.892-.965-1.072-2.26-1.624-4.343-1.585h-.043l-1.047.135h-.049c-1.037.267-2.021.813-2.603 1.544-1.752 1.988-1.252 5.472.88 6.905 2.105 1.578 5.193 1.93 5.586 3.412.384 1.8-1.312 2.386-3.006 2.186a.137.137 0 01-.043 0c-1.14-.241-1.817-.799-2.5-1.778a.36.36 0 00-.483-.107c-1.018.59-1.182.686-2.232 1.289a.357.357 0 00-.135.482c.309.506.676.972 1.096 1.39l.017.02c2.69 2.714 9.39 2.574 10.594-1.54.257-.82.303-1.693.133-2.536zM20.597 16.547h-2.75a.355.355 0 00-.358.355l-.014 8.604c0 1.904.099 3.65-.21 4.186-.5 1.035-1.78.927-2.391.724l-.068-.015c-.591-.299-.895-.724-1.25-1.312a.354.354 0 00-.482-.126l-2.235 1.366a.36.36 0 00-.125.482 5.445 5.445 0 001.884 2.035c1.318.79 3.086 1.035 4.937.615h.031c1.207-.355 2.237-1.081 2.78-2.186.789-1.448.62-3.214.613-5.161.017-3.06 0-6.12 0-9.186a.359.359 0 00-.362-.381z"/>
</svg>
