<svg xmlns="http://www.w3.org/2000/svg" width="69" height="42" fill="none" viewBox="0 0 69 42">
  <path fill="#1D2530" fill-rule="evenodd" d="M30.419 10.702h1.38l6.12 8.425 6.254-8.425L52.678 0 38.703 20.012l7.202 9.847H44.47l-6.552-8.961-6.579 8.961h-1.408l7.256-9.847-6.768-9.31zm-14.16 0h12.995v1.02H17.45v7.673h11.1v1.02h-11.1v8.425h11.94v1.02H16.259V10.701zm30.16 0v1.02h6.797v18.137h1.19V11.721h6.824v-1.02H46.42z" clip-rule="evenodd"/>
  <path fill="#1D2530" d="M0 10.702h1.49l20.533 30.33-8.486-11.173L1.245 12.151l-.054 17.708H0V10.702z"/>
  <path fill="#1D2530" fill-rule="evenodd" d="M67.293 28.584c-.927 0-1.55-.473-1.597-1.212h.644c.054.393.443.642 1.002.642.521 0 .904-.267.904-.633 0-.315-.243-.504-.797-.633l-.539-.129c-.756-.175-1.1-.535-1.1-1.143 0-.736.608-1.225 1.52-1.225.85 0 1.47.49 1.507 1.185h-.631c-.062-.38-.398-.618-.884-.618-.513 0-.855.243-.855.615 0 .295.22.464.765.59l.46.112c.858.198 1.212.541 1.212 1.163 0 .79-.62 1.286-1.611 1.286zm-5.013-1.175c0 .71.519 1.175 1.275 1.175.806 0 1.292-.479 1.292-1.31v-2.923h-.649v2.92c0 .462-.234.708-.649.708-.37 0-.623-.229-.631-.57h-.638zm-1.17 1.123a.417.417 0 00.425-.427c0-.24-.18-.426-.425-.426a.418.418 0 00-.426.426c0 .24.182.427.425.427z" clip-rule="evenodd"/>
</svg>
