<svg xmlns="http://www.w3.org/2000/svg" width="83" height="28" fill="none" viewBox="0 0 83 28">
  <path fill="#1D2530" d="M15.254 16.267a2.724 2.724 0 100-5.447 2.724 2.724 0 000 5.447z"/>
  <path fill="#1D2530" d="M15.254 19.788c-3.826 0-7.172-.451-9.675-1.308-1.618-.554-3.004-1.292-3.978-2.135C.551 15.453 0 14.49 0 13.544c0-1.8 1.979-3.565 5.292-4.72 2.714-.949 6.254-1.47 9.962-1.47 3.637 0 7.127.506 9.83 1.442 1.579.544 2.912 1.247 3.854 2.034 1.027.856 1.57 1.795 1.57 2.715 0 1.871-2.212 3.767-5.774 4.947-2.523.836-5.89 1.296-9.48 1.296zm0-11.124c-3.513 0-6.988.506-9.533 1.396-2.192.767-4.416 2.144-4.416 3.49 0 .541.402 1.18 1.137 1.814.856.735 2.087 1.389 3.558 1.891 2.37.809 5.562 1.237 9.254 1.237 3.455 0 6.676-.436 9.07-1.23 3.353-1.111 4.889-2.697 4.889-3.708 0-.506-.39-1.121-1.1-1.714-.822-.686-2.013-1.31-3.443-1.802-2.573-.883-5.914-1.37-9.41-1.37l-.006-.004z"/>
  <path fill="#1D2530" d="M9.066 27.132a2.865 2.865 0 01-1.456-.357c-1.56-.899-2.1-3.494-1.446-6.943.536-2.828 1.854-6.154 3.708-9.363 1.81-3.155 4.001-5.922 6.155-7.798 1.261-1.096 2.529-1.9 3.688-2.325 1.254-.461 2.34-.461 3.135 0 1.623.936 2.16 3.8 1.403 7.474-.536 2.6-1.819 5.747-3.606 8.862-1.911 3.315-3.974 5.987-5.966 7.728-1.3 1.126-2.63 1.95-3.846 2.385a5.393 5.393 0 01-1.769.337zm1.366-16.337l.563.325c-1.753 3.034-3.05 6.305-3.552 8.955-.435 2.287-.35 4.898.816 5.562.877.506 2.989.027 5.562-2.218 1.886-1.649 3.855-4.205 5.695-7.398 1.726-2.991 2.957-6.002 3.466-8.473.327-1.58.4-3.015.209-4.148-.169-.974-.506-1.66-.986-1.933-.443-.256-1.167-.22-2.033.098-1.011.37-2.139 1.09-3.282 2.087-2.056 1.788-4.148 4.434-5.894 7.468l-.564-.325z"/>
  <path fill="#1D2530" d="M21.44 27.144c-1.476 0-3.352-.893-5.304-2.572-2.181-1.878-4.406-4.677-6.263-7.89-1.822-3.143-3.129-6.422-3.676-9.226-.32-1.64-.381-3.147-.169-4.356C6.252 1.782 6.793.838 7.59.382c1.62-.94 4.37.027 7.174 2.516 1.989 1.766 4.074 4.45 5.872 7.556 1.916 3.316 3.203 6.435 3.708 9.03.337 1.686.386 3.249.15 4.518-.251 1.348-.812 2.313-1.626 2.784a2.84 2.84 0 01-1.428.358zm-10.438-11.11c1.76 3.035 3.94 5.79 5.983 7.55 1.765 1.517 4.07 2.75 5.235 2.075.875-.506 1.517-2.574.843-5.92-.485-2.455-1.72-5.44-3.565-8.63-1.715-2.988-3.713-5.551-5.592-7.237-1.207-1.072-2.414-1.854-3.489-2.253-.925-.346-1.696-.386-2.168-.111-.444.256-.775.9-.932 1.811-.182 1.056-.124 2.399.169 3.877.52 2.667 1.773 5.8 3.524 8.827l-.008.012z"/>
  <g>
    <path fill="#1D2530" fill-rule="evenodd" d="M44.546 13.431c1.068-1.31 1.117-2.768.534-4.224-.582-1.457-1.796-2.137-3.302-2.185-1.2-.033-2.42-.022-3.634-.011-.605.005-1.207.01-1.804.01H36v12.577h1.457v-4.759h2.282c.291 0 .534.097.68.34l2.913 4.516c.049.097.194.243.291.243h1.894a494.332 494.332 0 00-3.447-5.244c1.02-.146 1.893-.486 2.476-1.263zm11.702.534c-.776-3.399-3.884-4.273-6.264-3.204-1.845.825-2.67 2.427-2.719 4.418-.048 1.505.389 2.865 1.554 3.885 1.311 1.165 2.913 1.31 4.564 1.02.923-.195 1.748-.632 2.38-1.312a16.84 16.84 0 00-.729-.97c-1.36 1.165-2.864 1.553-4.515.776-1.069-.534-1.603-1.845-1.7-2.816h7.526v-.631c.049-.437 0-.826-.097-1.166zm5.342-3.593c.728-.049 1.505 0 2.233.146 1.36.291 2.185 1.165 2.185 2.573.033 1.518.022 3.103.01 4.572-.005.694-.01 1.361-.01 1.983h-1.36v-.63c-.37.203-.642.386-.874.542-.376.253-.647.435-1.068.526-.873.194-1.796.194-2.622-.146-1.31-.534-1.99-1.651-1.893-3.156.097-1.312.922-2.331 2.233-2.671 1.409-.34 2.72-.146 3.885.825.048.049.097.098.243.098-.014-.208-.02-.415-.026-.62v-.001c-.015-.518-.03-1.03-.169-1.516-.242-.874-1.068-1.165-1.942-1.214-1.117-.097-2.04.291-2.816 1.02a1.284 1.284 0 00-.291.243c-.168-.223-.303-.43-.434-.63-.097-.149-.191-.294-.295-.439.826-.874 1.845-1.408 3.01-1.505zm10.488 1.457c1.263-.389 2.428-.146 3.302.922l.146.097c.177-.151.34-.303.512-.462.157-.145.321-.297.507-.46-.115-.115-.17-.2-.235-.303a5.285 5.285 0 00-.056-.086c-1.408-1.505-4.176-1.7-5.876-.485-2.379 1.748-2.33 5.147-1.165 6.944 1.117 1.699 2.72 2.282 4.613 2.039 1.117-.146 2.04-.68 2.768-1.602-.34-.292-.68-.583-1.02-.923-.097.097-.145.146-.194.243-1.311 1.456-3.496 1.31-4.662-.243-.68-.923-.825-1.99-.63-3.06.096-1.213.728-2.184 1.99-2.621zm9.954 6.7s.049-.048.146-.096c.146.34.291.68.437.97 0 .05-.049.244-.146.292-.631.534-2.04.631-2.767.194-.68-.388-.874-1.068-.874-1.845V11.83h-1.554c0-.18-.007-.326-.013-.456-.01-.223-.018-.398.013-.612 0-.098.145-.195.242-.195h1.263V7.944h1.457v2.428h1.942v1.457h-1.845c-.033.323-.043.345-.047.352-.002.004-.002.004-.002.036v5.536c.049.388.097.777.534.97.437.146.826.098 1.214-.193zM37.457 8.528v4.807c.51 0 .983.006 1.433.012.838.01 1.596.02 2.354-.012 1.311-.048 2.38-1.068 2.38-2.38 0-1.31-.923-2.33-2.234-2.379-.84-.073-1.706-.063-2.558-.054-.283.003-.563.006-.841.006h-.534zm14.373 3.205c-1.603 0-3.06 1.554-2.914 3.01h5.973c-.049-1.942-1.214-3.059-3.06-3.01zm12.662 5.195c.006.049.011.097.011.146 0 1.02-.243 1.36-1.214 1.748-.68.243-1.408.34-2.136.097-.826-.243-1.408-.971-1.408-1.796-.049-.826.485-1.652 1.31-1.894 1.117-.389 2.137-.146 3.06.534.291.243.485.485.388.874a.664.664 0 00-.01.291z" clip-rule="evenodd"/>
  </g>
</svg>
