<svg xmlns="http://www.w3.org/2000/svg" width="35" height="35" fill="none" viewBox="0 0 35 35">
  <path fill="#1D2530" d="M19.218 29.934c.53-.435 1.025-.828 1.504-1.242.188-.162.345-.037.495.02 1.365.5 2.76.753 4.221.587 3.005-.345 5.594-3.48 4.455-6.9-.838-2.527-2.516-4.338-4.772-5.671a14.36 14.36 0 00-7.557-2.034.597.597 0 00-.588.312 2.025 2.025 0 01-2.294.887 2.102 2.102 0 01-1.553-1.972 2.134 2.134 0 011.36-2.02 2.023 2.023 0 012.393.716c.19.263.399.285.666.282 2.826-.021 5.52.555 7.988 1.947 2.377 1.328 4.304 3.124 5.511 5.592.754 1.52 1.665 5.25-.462 7.816-3.094 3.74-8.062 3.311-11.367 1.68z"/>
  <path fill="#1D2530" d="M16.981 3.208c2.363.07 4.207 1.17 5.623 3.036 1.323 1.742 1.898 3.767 2.115 5.91.022.222-.053.25-.247.188a33.567 33.567 0 00-1.404-.42c-.257-.07-.236-.264-.269-.458-.326-1.977-1.047-3.771-2.532-5.175-1.649-1.552-3.536-1.506-5.52-.75-1.94.741-3.037 2.285-3.708 4.12-1.402 3.883-.916 7.63 1.035 11.226.143.266.333.248.564.257a2.098 2.098 0 11-1.747 3.334 1.957 1.957 0 01-.292-1.944.689.689 0 00-.062-.667c-1.38-2.52-2.204-5.2-2.123-8.088.08-2.89.778-5.594 2.742-7.821 1.53-1.727 3.452-2.69 5.825-2.748z"/>
  <path fill="#1D2530" d="M6.885 16.178c.173.631.304 1.183.468 1.725.084.28-.152.334-.283.446-1.192 1.015-2.132 2.206-2.608 3.714-1.09 3.441 1.174 6.74 4.776 7.029a10.643 10.643 0 006.153-1.38c2.314-1.283 4.27-2.932 5.571-5.28a.55.55 0 00-.03-.69 2.048 2.048 0 01.085-2.461 2.1 2.1 0 013.747 1.393 2.05 2.05 0 01-1.525 1.936.784.784 0 00-.531.441c-3.588 6.816-11.355 9.192-16.076 7.193-2.772-1.174-4.028-3.37-4.07-6.284-.048-3.353 1.68-5.78 4.323-7.782z"/>
</svg>
